<svg width="64" height="64" viewBox="0 0 64 64" fill="none" xmlns="http://www.w3.org/2000/svg">
<path d="M16 0H1.23077C0.551034 0 0 0.551034 0 1.23077V16C0 16.6797 0.551034 17.2308 1.23077 17.2308H16C16.6797 17.2308 17.2308 16.6797 17.2308 16V1.23077C17.2308 0.551034 16.6797 0 16 0Z" fill="white"/>
<path d="M39.3846 0H24.6154C23.9357 0 23.3846 0.551034 23.3846 1.23077V16C23.3846 16.6797 23.9357 17.2308 24.6154 17.2308H39.3846C40.0644 17.2308 40.6154 16.6797 40.6154 16V1.23077C40.6154 0.551034 40.0644 0 39.3846 0Z" fill="white"/>
<path d="M62.7693 0H48.0001C47.3203 0 46.7693 0.551034 46.7693 1.23077V16C46.7693 16.6797 47.3203 17.2308 48.0001 17.2308H62.7693C63.449 17.2308 64.0001 16.6797 64.0001 16V1.23077C64.0001 0.551034 63.449 0 62.7693 0Z" fill="white"/>
<path d="M16 23.3846H1.23077C0.551034 23.3846 0 23.9356 0 24.6154V39.3846C0 40.0643 0.551034 40.6154 1.23077 40.6154H16C16.6797 40.6154 17.2308 40.0643 17.2308 39.3846V24.6154C17.2308 23.9356 16.6797 23.3846 16 23.3846Z" fill="white"/>
<path d="M39.3846 23.3846H24.6154C23.9357 23.3846 23.3846 23.9356 23.3846 24.6154V39.3846C23.3846 40.0643 23.9357 40.6154 24.6154 40.6154H39.3846C40.0644 40.6154 40.6154 40.0643 40.6154 39.3846V24.6154C40.6154 23.9356 40.0644 23.3846 39.3846 23.3846Z" fill="white"/>
<path d="M62.7693 23.3846H48.0001C47.3203 23.3846 46.7693 23.9356 46.7693 24.6154V39.3846C46.7693 40.0643 47.3203 40.6154 48.0001 40.6154H62.7693C63.449 40.6154 64.0001 40.0643 64.0001 39.3846V24.6154C64.0001 23.9356 63.449 23.3846 62.7693 23.3846Z" fill="white"/>
<path d="M16 46.7692H1.23077C0.551034 46.7692 0 47.3203 0 48V62.7692C0 63.449 0.551034 64 1.23077 64H16C16.6797 64 17.2308 63.449 17.2308 62.7692V48C17.2308 47.3203 16.6797 46.7692 16 46.7692Z" fill="white"/>
<path d="M39.3846 46.7692H24.6154C23.9357 46.7692 23.3846 47.3203 23.3846 48V62.7692C23.3846 63.449 23.9357 64 24.6154 64H39.3846C40.0644 64 40.6154 63.449 40.6154 62.7692V48C40.6154 47.3203 40.0644 46.7692 39.3846 46.7692Z" fill="white"/>
<path d="M62.7693 46.7692H48.0001C47.3203 46.7692 46.7693 47.3203 46.7693 48V62.7692C46.7693 63.449 47.3203 64 48.0001 64H62.7693C63.449 64 64.0001 63.449 64.0001 62.7692V48C64.0001 47.3203 63.449 46.7692 62.7693 46.7692Z" fill="white"/>
</svg>
