<svg width="40" height="40" viewBox="0 0 40 40" fill="none" xmlns="http://www.w3.org/2000/svg">
<path d="M36.5 0.5H3.5C2.70459 0.500794 1.94199 0.81712 1.37956 1.37956C0.81712 1.94199 0.500794 2.70459 0.5 3.5V36.5C0.500794 37.2954 0.81712 38.058 1.37956 38.6204C1.94199 39.1829 2.70459 39.4992 3.5 39.5H36.5C37.2954 39.4992 38.058 39.1829 38.6204 38.6204C39.1829 38.058 39.4992 37.2954 39.5 36.5V3.5C39.4992 2.70459 39.1829 1.94199 38.6204 1.37956C38.058 0.81712 37.2954 0.500794 36.5 0.5V0.5ZM18.5 3.5V18.5H3.5V3.5H18.5ZM3.5 21.5H18.5V36.5H3.5V21.5ZM21.5 36.5V3.5H36.5V36.5H21.5Z" fill="white"/>
</svg>
