<svg width="88" height="88" viewBox="0 0 88 88" fill="none" xmlns="http://www.w3.org/2000/svg">
<path d="M0 8.8V70.4L21.12 54.56C22.6424 53.416 24.4948 52.8 26.4 52.8H61.6C63.9339 52.8 66.1722 51.8729 67.8225 50.2225C69.4729 48.5722 70.4 46.3339 70.4 44V8.8C70.4 6.46609 69.4729 4.22778 67.8225 2.57746C66.1722 0.92714 63.9339 0 61.6 0H8.8C6.46609 0 4.22778 0.92714 2.57746 2.57746C0.92714 4.22778 0 6.46609 0 8.8ZM8.8 52.8V8.8H61.6V44H23.4696C21.5647 43.9949 19.7104 44.613 18.1896 45.76L8.8 52.8Z" fill="white"/>
<path d="M88 88V30.8C88 28.4661 87.0729 26.2278 85.4225 24.5775C83.7722 22.9271 81.5339 22 79.2 22V70.4L69.8104 63.36C68.2896 62.213 66.4353 61.5949 64.5304 61.6H22C22 62.7556 22.2276 63.9 22.6699 64.9676C23.1121 66.0353 23.7603 67.0054 24.5775 67.8225C25.3946 68.6397 26.3647 69.2879 27.4324 69.7301C28.5001 70.1724 29.6444 70.4 30.8 70.4H61.6C63.5052 70.4 65.3576 71.016 66.88 72.16L88 88Z" fill="white"/>
</svg>
