<svg width="56" height="50" viewBox="0 0 56 50" fill="none" xmlns="http://www.w3.org/2000/svg">
<path d="M20.314 30.5644C23.0188 30.5644 25.214 32.739 25.214 35.4247V45.1397C25.214 46.4287 24.6978 47.665 23.7788 48.5765C22.8599 49.4879 21.6136 50 20.314 50H4.9C3.60044 50 2.35411 49.4879 1.43518 48.5765C0.516249 47.665 0 46.4287 0 45.1397V35.4247C0 32.739 2.1952 30.5644 4.9 30.5644H20.314ZM51.1 30.5644C53.8048 30.5644 56 32.739 56 35.4247V45.1397C56 46.4287 55.4837 47.665 54.5648 48.5765C53.6459 49.4879 52.3996 50 51.1 50H35.686C34.3864 50 33.1401 49.4879 32.2212 48.5765C31.3022 47.665 30.786 46.4287 30.786 45.1397V35.4247C30.786 32.739 32.9812 30.5644 35.686 30.5644H51.1ZM20.314 34.7303H4.9C4.71435 34.7303 4.5363 34.8035 4.40503 34.9337C4.27375 35.0639 4.2 35.2405 4.2 35.4247V45.1397C4.2 45.5257 4.5136 45.834 4.9 45.834H20.314C20.4997 45.834 20.6777 45.7609 20.809 45.6307C20.9403 45.5005 21.014 45.3238 21.014 45.1397V35.4247C21.014 35.2405 20.9403 35.0639 20.809 34.9337C20.6777 34.8035 20.4997 34.7303 20.314 34.7303ZM51.1 34.7303H35.686C35.5003 34.7303 35.3223 34.8035 35.191 34.9337C35.0597 35.0639 34.986 35.2405 34.986 35.4247V45.1397C34.986 45.5257 35.2996 45.834 35.686 45.834H51.1C51.2857 45.834 51.4637 45.7609 51.595 45.6307C51.7262 45.5005 51.8 45.3238 51.8 45.1397V35.4247C51.8 35.2405 51.7262 35.0639 51.595 34.9337C51.4637 34.8035 51.2857 34.7303 51.1 34.7303ZM51.1 0C53.8048 0 56 2.17741 56 4.8603V20.1355C56 21.4246 55.4837 22.6608 54.5648 23.5723C53.6459 24.4838 52.3996 24.9958 51.1 24.9958H4.9C3.60044 24.9958 2.35411 24.4838 1.43518 23.5723C0.516249 22.6608 0 21.4246 0 20.1355V4.8603C4.59328e-05 3.64053 0.462479 2.46537 1.2955 1.5681C2.12853 0.670821 3.27124 0.117034 4.4968 0.016664L4.9 0H51.1ZM51.1 4.16597H4.9L4.7404 4.18541C4.58685 4.22108 4.44994 4.30713 4.35185 4.42962C4.25377 4.55212 4.20026 4.70387 4.2 4.8603V20.1355C4.2 20.5188 4.5136 20.8299 4.9 20.8299H51.1C51.2857 20.8299 51.4637 20.7567 51.595 20.6265C51.7262 20.4963 51.8 20.3197 51.8 20.1355V4.8603C51.8 4.67615 51.7262 4.49955 51.595 4.36934C51.4637 4.23912 51.2857 4.16597 51.1 4.16597Z" fill="white"/>
</svg>
