<svg width="48" height="48" viewBox="0 0 48 48" fill="none" xmlns="http://www.w3.org/2000/svg">
<path d="M43.2 48H4.8C3.52739 47.9986 2.3073 47.5054 1.40743 46.6284C0.507559 45.7514 0.00139757 44.5624 0 43.3222V21.6965C0.000552433 21.0448 0.140553 20.4004 0.41106 19.8044C0.681568 19.2084 1.07664 18.6739 1.57104 18.2351L20.7694 1.22333C21.651 0.436495 22.8031 4.32966e-05 23.9985 3.22115e-09C25.194 -4.32902e-05 26.3461 0.436324 27.2278 1.22309L46.429 18.2351L46.4297 18.2356C46.9239 18.6745 47.3187 19.2089 47.5891 19.8049C47.8595 20.4008 47.9994 21.0451 48 21.6967V43.3222C47.9986 44.5624 47.4924 45.7514 46.5926 46.6284C45.6927 47.5054 44.4726 47.9986 43.2 48ZM5.76 42.3866H42.24V22.1102L23.9986 5.94885L5.76 22.1102V42.3866Z" fill="white"/>
</svg>
