<svg width="48" height="48" viewBox="0 0 48 48" fill="none" xmlns="http://www.w3.org/2000/svg">
<path d="M43.2 15.1579H29.7312L32.4264 6.65179C32.9112 5.11579 32.6664 3.41305 31.7664 2.09937C30.8664 0.785684 29.4072 0 27.8688 0H24C23.2872 0 22.6128 0.333473 22.1544 0.909473L10.8744 15.1579H4.8C2.1528 15.1579 0 17.424 0 20.2105V42.9474C0 45.7339 2.1528 48 4.8 48H36.7368C37.7133 47.9966 38.6659 47.6813 39.4685 47.0958C40.2712 46.5103 40.8861 45.6821 41.232 44.7208L47.8488 26.1499C47.9493 25.8662 48.0005 25.5659 48 25.2632V20.2105C48 17.424 45.8472 15.1579 43.2 15.1579ZM4.8 20.2105H9.6V42.9474H4.8V20.2105ZM43.2 24.8059L36.7368 42.9474H14.4V18.5987L25.1232 5.05263H27.8736L24.1248 16.8834C24.0031 17.2631 23.9692 17.6679 24.0258 18.0642C24.0824 18.4605 24.228 18.8369 24.4504 19.1622C24.6728 19.4875 24.9657 19.7522 25.3048 19.9346C25.6438 20.1169 26.0193 20.2115 26.4 20.2105H43.2V24.8059Z" fill="white"/>
</svg>
