<svg width="523" height="97" viewBox="0 0 523 97" fill="none" xmlns="http://www.w3.org/2000/svg">
<path d="M37.6792 58.678C42.7076 58.678 46.7792 62.8583 46.7792 68.0089V86.6707C46.7792 89.1454 45.8205 91.5188 44.1139 93.2686C42.4073 95.0185 40.0927 96.0016 37.6792 96.0016H9.1C6.68653 96.0016 4.37191 95.0185 2.66533 93.2686C0.958748 91.5188 0 89.1454 0 86.6707V68.0089C0 62.8583 4.0768 58.678 9.1 58.678H37.6792ZM94.9 58.678C99.9232 58.678 104 62.8583 104 68.0089V86.6707C104 89.1454 103.041 91.5188 101.335 93.2686C99.6281 95.0185 97.3135 96.0016 94.9 96.0016H66.3208C63.9073 96.0016 61.5927 95.0185 59.8861 93.2686C58.1795 91.5188 57.2208 89.1454 57.2208 86.6707V68.0089C57.2208 62.8583 61.2924 58.678 66.3208 58.678H94.9ZM94.9 0C99.9232 0 104 4.18024 104 9.3309V38.6726C104.001 39.8984 103.766 41.1123 103.309 42.245C102.852 43.3777 102.182 44.4069 101.337 45.274C100.491 46.141 99.488 46.8288 98.3836 47.298C97.2792 47.7673 96.0955 48.0088 94.9 48.0088H9.1C6.68653 48.0088 4.37191 47.0257 2.66533 45.2758C0.958748 43.526 0 41.1526 0 38.6779V9.3309C8.53038e-05 6.98916 0.858889 4.73307 2.40594 3.01046C3.95298 1.28785 6.07516 0.224683 8.3512 0.0319919L9.1 0H94.9Z" fill="white"/>
<path d="M172.04 45.576L169.088 56.232H168.872L168.728 45.576L165.992 27.648H156.2L147.992 45.504L145.256 56.232H144.968L145.112 45.432L142.52 21.024H129.128L136.76 72H148.712L154.688 57.816L158.288 46.224H158.504L158.648 57.888L161.24 72H173.192L195.008 21.024H181.688L172.04 45.576ZM191.942 55.224C190.286 66.888 200.006 72.72 210.59 72.72C221.678 72.72 232.55 66.888 234.206 55.224L236.726 37.8C238.382 26.136 228.59 20.304 218.006 20.304C207.422 20.304 196.19 26.064 194.462 37.8L191.942 55.224ZM207.35 37.8C207.926 33.984 212.462 32.04 216.638 32.04C220.814 32.04 224.414 33.984 223.838 37.8L221.318 54.864C220.742 58.896 216.206 60.768 212.03 60.768C208.142 60.768 204.326 58.896 204.83 55.224L207.35 37.8ZM266.61 72H282.666L270.426 54.504C277.41 51.192 281.442 48.024 282.738 38.592C284.178 26.64 276.69 21.024 266.178 21.024H245.802L238.674 72H251.706L253.938 55.8H256.242L266.61 72ZM255.522 44.712L257.178 33.048H264.738C268.554 33.048 270.066 35.712 269.706 38.808C269.346 41.76 267.042 44.712 263.082 44.712H255.522ZM302.364 39.888L305.028 21.024H292.068L284.94 72H297.9L300.348 54.36L300.852 53.784L311.508 72H327.708L311.22 46.08L334.908 21.024H318.852L302.364 39.888ZM349.286 33.264H371.75L373.478 21.024H337.982L330.854 72H343.886L346.334 54.432H365.99L367.646 42.408H347.99L349.286 33.264ZM390.841 33.192H413.305L415.033 21.024H379.537L372.409 72H407.905L409.561 59.832H387.097L388.177 52.2H408.841L410.425 40.752H389.761L390.841 33.192ZM433.169 33.192H455.633L457.361 21.024H421.865L414.737 72H450.233L451.889 59.832H429.425L430.505 52.2H451.169L452.753 40.752H432.089L433.169 33.192ZM464.193 21.024L457.065 72H476.145C486.369 72 496.593 66.96 498.249 55.224L500.697 38.088C502.353 26.208 493.497 21.024 483.273 21.024H464.193ZM471.681 59.904L475.497 33.048H482.049C485.577 33.048 488.097 35.28 487.737 38.088L485.289 55.224C484.929 57.96 481.761 59.904 478.233 59.904H471.681Z" fill="white"/>
</svg>
