<svg width="372" height="53" viewBox="0 0 372 53" fill="none" xmlns="http://www.w3.org/2000/svg">
<path d="M43.04 25.576L40.088 36.232H39.872L39.728 25.576L36.992 7.648H27.2L18.992 25.504L16.256 36.232H15.968L16.112 25.432L13.52 1.024H0.127969L7.75997 52H19.712L25.688 37.816L29.288 26.224H29.504L29.648 37.888L32.24 52H44.192L66.008 1.024H52.688L43.04 25.576ZM62.9418 35.224C61.2858 46.888 71.0058 52.72 81.5898 52.72C92.6778 52.72 103.55 46.888 105.206 35.224L107.726 17.8C109.382 6.136 99.5898 0.303996 89.0058 0.303996C78.4218 0.303996 67.1898 6.064 65.4618 17.8L62.9418 35.224ZM78.3498 17.8C78.9258 13.984 83.4618 12.04 87.6378 12.04C91.8138 12.04 95.4138 13.984 94.8378 17.8L92.3178 34.864C91.7418 38.896 87.2058 40.768 83.0298 40.768C79.1418 40.768 75.3258 38.896 75.8298 35.224L78.3498 17.8ZM137.61 52H153.666L141.426 34.504C148.41 31.192 152.442 28.024 153.738 18.592C155.178 6.64 147.69 1.024 137.178 1.024H116.802L109.674 52H122.706L124.938 35.8H127.242L137.61 52ZM126.522 24.712L128.178 13.048H135.738C139.554 13.048 141.066 15.712 140.706 18.808C140.346 21.76 138.042 24.712 134.082 24.712H126.522ZM173.364 19.888L176.028 1.024H163.068L155.94 52H168.9L171.348 34.36L171.852 33.784L182.508 52H198.708L182.22 26.08L205.908 1.024H189.852L173.364 19.888ZM220.286 13.264H242.75L244.478 1.024H208.982L201.854 52H214.886L217.334 34.432H236.99L238.646 22.408H218.99L220.286 13.264ZM261.841 13.192H284.305L286.033 1.024H250.537L243.409 52H278.905L280.561 39.832H258.097L259.177 32.2H279.841L281.425 20.752H260.761L261.841 13.192ZM304.169 13.192H326.633L328.361 1.024H292.865L285.737 52H321.233L322.889 39.832H300.425L301.505 32.2H322.169L323.753 20.752H303.089L304.169 13.192ZM335.193 1.024L328.065 52H347.145C357.369 52 367.593 46.96 369.249 35.224L371.697 18.088C373.353 6.208 364.497 1.024 354.273 1.024H335.193ZM342.681 39.904L346.497 13.048H353.049C356.577 13.048 359.097 15.28 358.737 18.088L356.289 35.224C355.929 37.96 352.761 39.904 349.233 39.904H342.681Z" fill="white"/>
</svg>
