<svg width="64" height="50" viewBox="0 0 64 50" fill="none" xmlns="http://www.w3.org/2000/svg">
<path d="M0 4.16667C0 1.86548 1.86548 0 4.16667 0H59.8333C62.1345 0 64 1.86548 64 4.16667C64 6.46785 62.1345 8.33333 59.8333 8.33333H4.16666C1.86548 8.33333 0 6.46785 0 4.16667ZM0 25C0 22.6988 1.86548 20.8333 4.16667 20.8333H59.8333C62.1345 20.8333 64 22.6988 64 25C64 27.3012 62.1345 29.1667 59.8333 29.1667H4.16666C1.86548 29.1667 0 27.3012 0 25ZM0 45.8333C0 43.5321 1.86548 41.6667 4.16667 41.6667H59.8333C62.1345 41.6667 64 43.5321 64 45.8333C64 48.1345 62.1345 50 59.8333 50H4.16666C1.86548 50 0 48.1345 0 45.8333Z" fill="white"/>
</svg>
