<svg width="33" height="8" viewBox="0 0 33 8" fill="none" xmlns="http://www.w3.org/2000/svg">
<path d="M29.2485 8H28.3521C28.33 8 28.3078 7.98942 28.2857 7.96825C28.2193 7.94709 28.1751 7.93651 28.1529 7.93651C27.6881 7.87302 27.2455 7.73545 26.8249 7.52381C26.4044 7.31217 26.0392 7.04762 25.7294 6.73016C25.4195 6.4127 25.165 6.05291 24.9658 5.65079C24.7666 5.24868 24.6559 4.8254 24.6338 4.38095C24.5453 3.38624 24.7721 2.50794 25.3144 1.74603C25.8566 0.984127 26.6147 0.465609 27.5885 0.190476C27.6549 0.169312 27.7324 0.148148 27.8209 0.126984C27.9095 0.10582 28.0035 0.0846561 28.1031 0.0634921C28.2027 0.042328 28.2857 0.021164 28.3521 0H29.3149L29.4477 0.0634921C30.3109 0.190476 31.0578 0.534392 31.6886 1.09524C32.3194 1.65608 32.7233 2.34921 32.9004 3.1746L33 3.55556V4.47619C32.9779 4.53968 32.9557 4.58201 32.9336 4.60317C32.8008 5.42857 32.4467 6.13228 31.8712 6.71429C31.2958 7.2963 30.5875 7.68254 29.7465 7.87302L29.4477 7.96825C29.3592 7.98942 29.2928 8 29.2485 8ZM3.75151 0H4.64789C4.67002 0 4.69215 0.010582 4.71429 0.031746L4.84708 0.0634921C5.48893 0.148148 6.06992 0.359788 6.59004 0.698413C7.11016 1.03704 7.53068 1.46561 7.85161 1.98413C8.17253 2.50265 8.34406 3.0582 8.3662 3.65079C8.4326 4.62434 8.19467 5.49735 7.65241 6.26984C7.11016 7.04233 6.35211 7.56614 5.37827 7.84127C5.31187 7.84127 5.06841 7.89418 4.64789 8H3.75151C3.72938 8 3.69618 7.98942 3.65191 7.96825C3.60765 7.94709 3.57445 7.93651 3.55231 7.93651C1.84809 7.64021 0.719316 6.68783 0.165996 5.07937C0.143863 5.01587 0.12173 4.94709 0.0995976 4.87302C0.0774648 4.79894 0.0608652 4.71958 0.0497988 4.63492C0.0387324 4.55026 0.0221328 4.48677 0 4.44444V3.55556L0.0331992 3.52381C0.055332 3.46032 0.0663984 3.41799 0.0663984 3.39683C0.15493 2.84656 0.343058 2.34392 0.630785 1.88889C0.918511 1.43386 1.28924 1.05291 1.74296 0.746032C2.19668 0.439153 2.71127 0.222222 3.28672 0.0952381C3.37525 0.0740741 3.53018 0.042328 3.75151 0ZM16.0352 0H16.9648L17.0478 0.031746L17.164 0.0634921C18.1157 0.21164 18.9291 0.62963 19.6041 1.31746C20.2792 2.00529 20.6388 2.79365 20.6831 3.68254C20.7274 4.69841 20.4618 5.59259 19.8863 6.36508C19.3109 7.13757 18.5362 7.64021 17.5624 7.87302C17.4296 7.89418 17.2304 7.93651 16.9648 8H16.0352C16.0131 8 15.9909 7.98942 15.9688 7.96825L15.836 7.93651C14.8843 7.80952 14.0709 7.39683 13.3959 6.69841C12.7208 6 12.3612 5.20635 12.3169 4.31746C12.2948 3.91534 12.328 3.5291 12.4165 3.15873C12.505 2.78836 12.6378 2.43915 12.8149 2.11111C12.992 1.78307 13.2077 1.48677 13.4623 1.22222C13.7168 0.957672 14.0101 0.73545 14.3421 0.555556C14.674 0.375661 15.0392 0.232804 15.4376 0.126984C15.5704 0.10582 15.7696 0.0634921 16.0352 0Z" fill="white"/>
</svg>
