<svg width="48" height="48" viewBox="0 0 48 48" fill="none" xmlns="http://www.w3.org/2000/svg">
<path d="M19.158 1.26174e-06C16.1595 0.00160359 13.2032 0.706476 10.5268 2.05796C7.8503 3.40945 5.52827 5.36986 3.74734 7.78162C1.9664 10.1934 0.776221 12.9892 0.27246 15.9445C-0.231301 18.8997 -0.0345939 21.9318 0.846773 24.7972C1.72814 27.6626 3.26958 30.2813 5.34721 32.4429C7.42483 34.6044 9.98069 36.2485 12.8094 37.243C15.638 38.2375 18.6606 38.5547 21.6342 38.169C24.6077 37.7834 27.4493 36.7057 29.9305 35.0225L41.7765 46.8563C42.1055 47.2094 42.5023 47.4925 42.9432 47.6889C43.3841 47.8853 43.86 47.9909 44.3425 47.9994C44.8251 48.0079 45.3045 47.9192 45.752 47.7385C46.1995 47.5578 46.606 47.2888 46.9473 46.9475C47.2886 46.6063 47.5577 46.1999 47.7384 45.7525C47.9192 45.305 48.0079 44.8258 47.9994 44.3433C47.9909 43.8609 47.8853 43.385 47.6889 42.9443C47.4924 42.5035 47.2092 42.1068 46.8561 41.7778L35.0197 29.9344C36.9779 27.053 38.1135 23.6924 38.3044 20.214C38.4953 16.7357 37.7342 13.2711 36.1031 10.1927C34.4719 7.11443 32.0324 4.53886 29.0468 2.74295C26.0611 0.947041 22.6423 -0.00126264 19.158 1.26174e-06ZM7.17784 19.1641C7.17784 15.9875 8.44003 12.9409 10.6867 10.6947C12.9335 8.44848 15.9807 7.18656 19.158 7.18656C22.3353 7.18656 25.3825 8.44848 27.6292 10.6947C29.8759 12.9409 31.1381 15.9875 31.1381 19.1641C31.1381 22.3408 29.8759 25.3873 27.6292 27.6336C25.3825 29.8798 22.3353 31.1417 19.158 31.1417C15.9807 31.1417 12.9335 29.8798 10.6867 27.6336C8.44003 25.3873 7.17784 22.3408 7.17784 19.1641Z" fill="#1C2125"/>
</svg>
