<svg width="45" height="48" viewBox="0 0 45 48" fill="none" xmlns="http://www.w3.org/2000/svg">
<path d="M21.0732 8.19512H14.0488V4.68293H15.2195C16.5073 4.68293 17.561 3.62927 17.561 2.34146C17.561 1.05366 16.5073 0 15.2195 0H8.19512C6.90732 0 5.85366 1.05366 5.85366 2.34146C5.85366 3.62927 6.90732 4.68293 8.19512 4.68293H9.36585V8.19512H2.34146C1.05366 8.19512 0 9.24878 0 10.5366C0 11.8244 1.05366 12.878 2.34146 12.878V30.439C2.34146 33.0146 4.44878 35.1219 7.02439 35.1219H9.36585V44.4878L14.0488 48V35.1219H16.3902C18.9659 35.1219 21.0732 33.0146 21.0732 30.439V12.878C22.361 12.878 23.4146 11.8244 23.4146 10.5366C23.4146 9.24878 22.361 8.19512 21.0732 8.19512ZM16.3902 16.3902H12.2927C11.3327 16.3902 10.5366 17.1863 10.5366 18.1463C10.5366 19.1063 11.3327 19.9024 12.2927 19.9024H16.3902V23.4146H12.2927C11.3327 23.4146 10.5366 24.2107 10.5366 25.1707C10.5366 26.1307 11.3327 26.9268 12.2927 26.9268H16.3902V30.439H7.02439V12.878H16.3902V16.3902ZM40.9756 19.9024V18.7317C42.2634 18.7317 43.3171 17.678 43.3171 16.3902C43.3171 15.1024 42.2634 14.0488 40.9756 14.0488H29.2683C27.9805 14.0488 26.9268 15.1024 26.9268 16.3902C26.9268 17.678 27.9805 18.7317 29.2683 18.7317V19.9024C29.2683 21.0732 25.7561 22.6185 25.7561 26.9268V42.1463C25.7561 44.722 27.8634 46.8293 30.439 46.8293H39.8049C42.3805 46.8293 44.4878 44.722 44.4878 42.1463V26.9268C44.4878 22.6185 40.9756 21.0732 40.9756 19.9024ZM33.9512 19.9024V18.7317H36.2927V19.9024C36.2927 23.6488 39.8049 24.5854 39.8049 26.9268V28.0976H30.439V26.9268C30.439 24.5854 33.9512 23.6488 33.9512 19.9024ZM30.439 42.1463V38.6341H39.8049V42.1463H30.439Z" fill="white"/>
</svg>
