<svg width="65" height="64" viewBox="0 0 65 64" fill="none" xmlns="http://www.w3.org/2000/svg">
<path d="M64.262 24.9052C64.193 24.5728 64.057 24.2596 63.8631 23.9866C63.6693 23.7136 63.422 23.487 63.1378 23.3219L56.3468 19.3771C55.9707 18.6142 55.5608 17.87 55.1186 17.147L55.2497 9.01315C55.2551 8.67295 55.1912 8.33545 55.062 8.02319C54.9329 7.71094 54.7415 7.43112 54.5008 7.20244C51.1196 3.98441 47.1143 1.56836 42.7587 0.119479C42.4492 0.0158826 42.1221 -0.0174415 41.7993 0.0217305C41.4765 0.0609025 41.1654 0.17167 40.8867 0.346641L34.2265 4.52821C33.4071 4.48739 32.5862 4.4868 31.7667 4.52641L25.1008 0.340962C24.822 0.165898 24.5108 0.0550806 24.1878 0.0159081C23.8648 -0.0232645 23.5376 0.010109 23.228 0.113801C18.8742 1.56921 14.872 3.99116 11.495 7.21409C11.2544 7.4428 11.0632 7.72259 10.9342 8.03479C10.8051 8.34699 10.7412 8.6844 10.7467 9.02451L10.8775 17.1515C10.4342 17.8738 10.0232 18.6172 9.64591 19.3795L2.84917 23.3279C2.56491 23.4931 2.31761 23.7198 2.12379 23.993C1.92997 24.2662 1.79409 24.5795 1.72523 24.9121C0.752578 29.5852 0.755696 34.423 1.73437 39.0947C1.80336 39.4271 1.93929 39.7402 2.13311 40.0132C2.32692 40.2863 2.57416 40.5129 2.85831 40.678L9.64933 44.6228C10.0254 45.3857 10.4353 46.1299 10.8775 46.8529L10.7467 54.9868C10.7412 55.327 10.8052 55.6645 10.9344 55.9767C11.0635 56.289 11.2549 56.5688 11.4956 56.7975C14.8767 60.0155 18.8819 62.4315 23.2374 63.8804C23.5469 63.9841 23.8741 64.0174 24.1969 63.9782C24.5198 63.939 24.831 63.8283 25.1097 63.6533L31.7699 59.4717C32.589 59.5121 33.4119 59.513 34.2294 59.4735L40.8953 63.6589C41.1741 63.8341 41.4854 63.9449 41.8084 63.9841C42.1314 64.0233 42.4587 63.9899 42.7684 63.8861C47.1221 62.4308 51.1241 60.0089 54.501 56.7861C54.7417 56.5574 54.9329 56.2776 55.0619 55.9654C55.191 55.6532 55.2549 55.3158 55.2494 54.9757L55.1186 46.8487C55.5619 46.1264 55.9729 45.383 56.3502 44.6207L63.1469 40.6723C63.4312 40.5071 63.6785 40.2804 63.8723 40.0072C64.0661 39.734 64.202 39.4207 64.2709 39.0881C65.2435 34.415 65.2404 29.5772 64.2617 24.9055L64.262 24.9052ZM32.9983 45.1513C30.5127 45.1513 28.0829 44.3799 26.0162 42.9348C23.9495 41.4897 22.3387 39.4358 21.3875 37.0326C20.4363 34.6295 20.1874 31.9852 20.6723 29.4341C21.1572 26.8829 22.3542 24.5396 24.1118 22.7003C25.8694 20.8611 28.1087 19.6085 30.5465 19.1011C32.9844 18.5936 35.5113 18.854 37.8077 19.8494C40.1041 20.8448 42.0669 22.5305 43.4478 24.6932C44.8288 26.856 45.5658 29.3987 45.5658 31.9998C45.5621 35.4866 44.2368 38.8294 41.8807 41.2949C39.5247 43.7604 36.3303 45.1473 32.9983 45.1513Z" fill="white"/>
</svg>
